<svg version="1.2" xmlns="http://www.w3.org/2000/svg" viewBox="0 0 2000 2000" width="2000" height="2000">
	<title>Layer</title>
	<style>
		.s0 { fill: #ffffff } 
	</style>
	<path class="s0" d="m451.7 1633.7v-122.4l-2.4-19.5h106.7q15.5 0 24.1 4 9 4.1 13.1 10.9 4.3 6.5 5.5 14 1.2 7.5 1.2 14.2v14.2q0 5.6-1.7 12.5-1.7 6.8-6.2 13.3-4.6 6.3-13.3 10.6-8.7 4.1-22.7 4.1h-24.5q-15.2 0-28.5-0.7-13-0.7-19.5-1.2v46zm31.8-67.2h65.6q10.8 0 14.9-5.3 4.1-5.3 4.1-12.8v-15.2q0-7.7-4.1-13-4.1-5.3-14.7-5.3h-65.8zm140.4 67.2v-141.7h149.9v23.1h-118.1v33.3h90.2v23.9h-90.2v38.3h119.1l9.6 20.5q0 0.9-6.5 1.9-6.5 0.7-22.4 0.7zm177.3 0v-122.4l-2.4-19.3h34.7l81.9 85.8 9.4 13h2.7v-98.8h31.8v141.7h-30.6l-83.9-87.2-9.4-11.3h-2.4v98.5zm235.5 0l-0.2-118.8h-62.7v-23.1h157.6v23.1h-62.9v118.8zm61.1 0l70.6-141.7h47.5l70.3 141.7h-37.1l-14.2-30.6h-86.3l-15.7 30.6zm59.6-54.2h68.7l-33.1-65.8h-2.4zm162.7 54.2l70.6-141.7h47.5l70.3 141.7h-37.1l-14.2-30.6h-86.3l-15.6 30.6zm59.5-54.2h68.7l-33-65.8h-2.4zm138.6 54.2v-141.7h31.8v141.7z"/>
</svg>